# xmcd
#
# Track frame offsets: 
#        150
#        13841
#        29206
#        40513
#        56021
#        71948
#        87056
#        102509
#        119800
#        137746
#        151075
#        165337
#        180052
#        194006
#        210391
#        223838
#        238375
#
# Disc length: 3343 seconds
#
# Revision: 0
# Processed by: cddbd v1.5.2PL0 Copyright (c) Steve Scherf et al.
# Submitted via: ExactAudioCopy v0.99pb5
#
DISCID=f70d0d11
DTITLE=Barton Hollow - The Civil Wars
DYEAR=2011
DGENRE=Country
TTITLE0=20 Year
TTITLE1=I've Got This Friend
TTITLE2=C'est la mort
TTITLE3=Barton Hollow
TTITLE4=To Whom it May Concern
TTITLE5=My Father's Father
TTITLE6=The Violet Hour
TTITLE7=The Girl with the Red Ballon
TTITLE8=Falling
TTITLE9=Forget Me Not
TTITLE10=Birds of a Feather
TTITLE11=I Want You Back
TTITLE12=Dance With Me to the End of Love
TTITLE13=Poison and Wine
TTITLE14=Go
TTITLE15=Pressing Flowers
TTITLE16=Tip of My Tongue
EXTD=
EXTT0=
EXTT1=
EXTT2=
EXTT3=
EXTT4=
EXTT5=
EXTT6=
EXTT7=
EXTT8=
EXTT9=
EXTT10=
EXTT11=
EXTT12=
EXTT13=
EXTT14=
EXTT15=
EXTT16=
PLAYORDER=
